<svg enable-background="new 0 0 48 48" viewBox="0 0 48 48" xmlns="http://www.w3.org/2000/svg"><path d="m13.2 13.1-3.1-3.1v22.4 1c0 .5.1 1.1.3 1.6l24.6 8.7 6.2-2.7z" fill="#00c4b3"/><path d="m10.4 35.1c0-.1 0 0 0 0zm30.7 5.9-6.1 2.7-24.6-8.7c.5 1.8 1.5 3.8 2.6 4.9l8 8h17.8z" fill="#22d3c5"/><path d="m10.2 10-9.6 14.4c-.8.8-.4 2.6.9 3.9l5.5 5.5 3.5 1.2c-.2-.6-.2-1.1-.3-1.6v-1z" fill="#0075c9"/><path d="m35.2 10.3c-.6-.2-1.2-.3-1.7-.3h-1.1-22.4l31 31 2.7-6.2z" fill="#0075c9"/><path d="m35.1 10.2c.1.1.1.1 0 0 .1 0 .1 0 0 0zm5 2.7c-1.1-1.1-3.1-2.2-4.9-2.6l8.7 24.6-2.8 6.1 6.7-2.1v-18.3z" fill="#00a8e1"/><path d="m34 6.8-5.6-5.5c-1.3-1.3-3-1.7-3.9-.9l-14.4 9.6h22.4 1.1c.5 0 1.1.1 1.6.3z" fill="#00c4b3"/></svg>