<svg enable-background="new 0 0 64 64" viewBox="0 0 64 64" xmlns="http://www.w3.org/2000/svg"><path d="m62.8 29.2-27.9-28c-1.6-1.6-4.2-1.6-5.8 0l-5.9 5.8 7.4 7.4c1.7-.6 3.7-.2 5 1.2 1.3 1.3 1.8 3.3 1.2 5.1l7.1 7.1c1.7-.6 3.7-.2 5.1 1.2 1.9 1.9 1.9 5 0 6.9s-5 1.9-6.9 0c-1.4-1.4-1.8-3.6-1.1-5.3l-6.6-6.6v17.4c.5.2.9.6 1.3.9 1.9 1.9 1.9 5 0 6.9s-5 1.9-6.9 0c-1.9-1.9-1.9-5 0-6.9.5-.5 1-.8 1.6-1.1v-17.6c-.6-.2-1.1-.6-1.6-1.1-1.4-1.4-1.8-3.5-1.1-5.4l-7.3-7.3-19.2 19.2c-1.6 1.6-1.6 4.2 0 5.8l27.9 27.9c1.6 1.6 4.2 1.6 5.8 0l27.9-27.7c1.6-1.6 1.6-4.2 0-5.8z" fill="#f03c2e"/></svg>