<svg enable-background="new 0 0 48 48" viewBox="0 0 48 48" xmlns="http://www.w3.org/2000/svg"><path d="m23.6 25.1c-1.2-1.9-2.1-3.5-3.3-6.5-2-5.1 12.4-9.7 6.5-18.5 2.5 6.1-9.1 9.9-10.2 15-.9 4.5 7 10 7 10z" fill="#f44336"/><path d="m23.9 15.9c-.2 3 2.7 4.6 2.8 6.8.1 1.8-1.7 3.3-1.7 3.3s3.3-.6 4.3-3.4c1.1-3-2.2-5.1-1.9-7.6.3-2.3 7.2-6.7 7.2-6.7s-10.2.8-10.7 7.6z" fill="#f44336"/><g fill="#1565c0"><path d="m33.7 25.3c2.1-.5 3.9.9 3.9 2.4 0 3.5-4.8 6.8-4.8 6.8s7.5-.9 7.5-6.6c-.1-3.8-3.7-4.8-6.6-2.6zm-3.5 2.8s2.3-1.7 2.9-2.3c-5.7 1.2-18.8 1.4-18.8.3 0-1 4.2-2 4.2-2s-9.3-.1-9.3 2.7 12.2 3 21 1.3z"/><path d="m28.7 30.7c-5.4 1.8-15.4 1.2-12.4-1.2-1.4 0-3.6 1.2-3.6 2.3 0 2.2 10.8 3.9 18.8.7z"/><path d="m17.6 34.5c-2 0-3.2 1.3-3.2 2.2 0 2.9 11.7 3.2 16.4.2l-2.9-2c-3.6 1.6-12.3 1.8-10.3-.4z"/><path d="m38.7 39.2c0-1.1-1.3-1.7-1.7-1.9 2.7 6.4-26.8 5.9-26.8 2.1 0-.9 2.2-1.7 4.2-1.3l-1.7-1c-4-.6-6.7 1.1-6.7 2.5 0 6.6 32.7 6.3 32.7-.4z"/><path d="m42 41.5c-5 4.9-17.6 6.7-30.3 3.7 12.7 5.4 30.2 2.4 30.3-3.7z"/></g></svg>