<svg enable-background="new 0 0 48 48" viewBox="0 0 48 48" xmlns="http://www.w3.org/2000/svg" xmlns:xlink="http://www.w3.org/1999/xlink"><clipPath id="a"><path d="m727.3 380.2-209.7 209.8 209.7 209.8h-239.6l-209.8-209.8 209.8-209.8zm-239.6-359.5-389.5 389.5 119.8 119.8 509.3-509.3z"/></clipPath><clipPath id="b"><path d="m727.3 380.2-209.7 209.8 209.7 209.8h-239.6l-209.8-209.8 209.8-209.8zm-239.6-359.5-389.5 389.5 119.8 119.8 509.3-509.3z"/></clipPath><clipPath id="c"><path d="m727.3 380.2-209.7 209.8 209.7 209.8h-239.6l-209.8-209.8 209.8-209.8zm-239.6-359.5-389.5 389.5 119.8 119.8 509.3-509.3z"/></clipPath><clipPath id="d"><path d="m727.3 380.2-209.7 209.8 209.7 209.8h-239.6l-209.8-209.8 209.8-209.8zm-239.6-359.5-389.5 389.5 119.8 119.8 509.3-509.3z"/></clipPath><linearGradient id="e" gradientTransform="matrix(.061615 0 0 -.061615 -4159.1699 -5997.0713)" gradientUnits="userSpaceOnUse" x1="74525.2734" x2="74614.5391" y1="-109226.5859" y2="-109137.3281"><stop offset="0" stop-color="#1a237e" stop-opacity=".4"/><stop offset="1" stop-color="#1a237e" stop-opacity="0"/></linearGradient><clipPath id="f"><path d="m727.3 380.2-209.7 209.8 209.7 209.8h-239.6l-209.8-209.8 209.8-209.8zm-239.6-359.5-389.5 389.5 119.8 119.8 509.3-509.3z"/></clipPath><radialGradient id="g" cx="115.85849226563" cy="73.79586617188" gradientUnits="userSpaceOnUse" r="58.72212183688"><stop offset="0" stop-color="#fff" stop-opacity=".1"/><stop offset="1" stop-color="#fff" stop-opacity="0"/></radialGradient><g transform="matrix(.061615 0 0 .061615 -1.430818 -1.2754)"><g clip-path="url(#a)"><path d="m278 590 119.8 119.9 329.6-329.6h-239.7z" fill="#39cefd"/></g><path clip-path="url(#b)" d="m487.7 20.7h239.6l-509.3 509.3-119.8-119.8z" fill="#39cefd"/><path clip-path="url(#c)" d="m397.7 709.8 89.9 89.9h239.6l-209.6-209.7z" fill="#03569b"/><path clip-path="url(#d)" d="m575.5 648.2-57.9-58.2-119.9 119.8z" fill="url(#e)"/><g clip-path="url(#f)"><path d="m277.9 589.9 119.9-119.9 119.9 119.9-119.9 119.9z" fill="#16b9fd"/></g><path d="m727.3 380.2-209.7 209.8 209.7 209.8h-239.6l-209.8-209.8 209.8-209.8zm-239.6-359.5-389.5 389.5 119.8 119.8 509.3-509.3z" fill="url(#g)"/></g></svg>