<svg enable-background="new 0 0 48 48" viewBox="0 0 48 48" xmlns="http://www.w3.org/2000/svg"><path d="m0 48v-48h48v48z" fill="#ffd600"/><path d="m31.4 35.9c.9 1.5 1.9 2.9 4 2.9 1.8 0 2.7-.9 2.7-2.1 0-1.5-1-2-2.9-2.8l-1.1-.5c-3.1-1.3-5.1-2.9-5.1-6.4 0-3.2 2.5-5.7 6.3-5.7 2.7 0 4.7.9 6.1 3.4l-3.4 2.1c-.7-1.3-1.5-1.8-2.8-1.8s-2.1.8-2.1 1.8c0 1.3.8 1.8 2.6 2.6l1.1.5c3.7 1.6 5.7 3.2 5.7 6.7 0 3.9-3 6-7.1 6-4 0-6.3-2-7.5-4.5zm-15.5.1c.7 1.2 1.7 2.1 3.2 2.1 1.4 0 2.2-.6 2.2-2.7v-14.1h4.4v14.8c0 4.5-2.6 6.5-6.4 6.5-3.4 0-5.9-2.3-6.9-4.5z" fill="#000001"/></svg>